<?xml version="1.0" encoding="UTF-8"?>
<svg xmlns="http://www.w3.org/2000/svg" version="1.1" width="500" height="500" viewBox="0 0 500 500"><rect x="0" y="0" width="500" height="500" fill="#ffffff"/><g transform="scale(15.152)"><g transform="translate(0,0)"><path fill-rule="evenodd" d="M8 0L8 4L9 4L9 5L8 5L8 7L9 7L9 6L10 6L10 9L11 9L11 8L12 8L12 9L13 9L13 10L14 10L14 9L15 9L15 11L14 11L14 17L13 17L13 16L12 16L12 15L13 15L13 13L12 13L12 12L13 12L13 11L12 11L12 12L11 12L11 13L9 13L9 12L10 12L10 11L11 11L11 10L6 10L6 11L9 11L9 12L8 12L8 13L7 13L7 12L5 12L5 9L7 9L7 8L4 8L4 12L2 12L2 11L3 11L3 10L1 10L1 12L0 12L0 13L1 13L1 14L0 14L0 15L2 15L2 18L0 18L0 19L2 19L2 20L1 20L1 21L0 21L0 22L2 22L2 24L0 24L0 25L2 25L2 24L4 24L4 23L3 23L3 22L4 22L4 21L7 21L7 22L6 22L6 23L7 23L7 22L8 22L8 24L9 24L9 25L8 25L8 26L9 26L9 27L8 27L8 29L10 29L10 30L9 30L9 31L8 31L8 33L9 33L9 32L10 32L10 33L11 33L11 32L13 32L13 31L14 31L14 29L15 29L15 32L14 32L14 33L18 33L18 32L19 32L19 30L17 30L17 31L16 31L16 29L15 29L15 28L17 28L17 29L18 29L18 27L17 27L17 25L16 25L16 26L15 26L15 24L18 24L18 23L16 23L16 22L17 22L17 21L18 21L18 22L19 22L19 20L20 20L20 19L19 19L19 17L20 17L20 18L21 18L21 21L20 21L20 22L21 22L21 24L20 24L20 23L19 23L19 25L18 25L18 26L19 26L19 25L20 25L20 26L21 26L21 24L22 24L22 25L23 25L23 24L24 24L24 29L23 29L23 26L22 26L22 27L20 27L20 29L21 29L21 31L20 31L20 33L27 33L27 32L30 32L30 31L32 31L32 30L33 30L33 27L32 27L32 26L31 26L31 25L32 25L32 24L33 24L33 23L31 23L31 25L29 25L29 24L27 24L27 23L28 23L28 21L29 21L29 22L30 22L30 21L29 21L29 18L30 18L30 19L32 19L32 20L31 20L31 22L32 22L32 21L33 21L33 19L32 19L32 18L33 18L33 15L32 15L32 14L31 14L31 13L30 13L30 12L29 12L29 10L28 10L28 13L27 13L27 11L26 11L26 12L24 12L24 13L23 13L23 11L24 11L24 10L26 10L26 9L25 9L25 4L24 4L24 3L23 3L23 0L22 0L22 2L21 2L21 0L20 0L20 1L18 1L18 2L16 2L16 3L15 3L15 5L14 5L14 3L13 3L13 2L15 2L15 1L16 1L16 0L15 0L15 1L14 1L14 0L13 0L13 1L11 1L11 2L12 2L12 5L14 5L14 7L15 7L15 5L16 5L16 3L18 3L18 2L21 2L21 3L19 3L19 4L20 4L20 5L18 5L18 7L17 7L17 6L16 6L16 8L17 8L17 9L20 9L20 11L19 11L19 12L18 12L18 10L16 10L16 9L15 9L15 8L14 8L14 9L13 9L13 8L12 8L12 7L13 7L13 6L12 6L12 7L11 7L11 3L10 3L10 2L9 2L9 0ZM24 1L24 2L25 2L25 1ZM21 3L21 4L22 4L22 5L23 5L23 7L22 7L22 6L21 6L21 7L20 7L20 6L19 6L19 7L18 7L18 8L20 8L20 9L21 9L21 10L22 10L22 11L23 11L23 10L22 10L22 9L21 9L21 7L22 7L22 8L23 8L23 7L24 7L24 5L23 5L23 3ZM0 8L0 9L2 9L2 8ZM27 8L27 9L28 9L28 8ZM29 8L29 9L30 9L30 11L31 11L31 12L32 12L32 13L33 13L33 12L32 12L32 10L31 10L31 9L33 9L33 8ZM15 11L15 12L16 12L16 11ZM20 11L20 13L16 13L16 14L18 14L18 16L19 16L19 15L20 15L20 13L21 13L21 14L23 14L23 13L21 13L21 11ZM1 12L1 13L2 13L2 12ZM6 13L6 14L5 14L5 15L4 15L4 16L5 16L5 15L6 15L6 16L7 16L7 15L6 15L6 14L7 14L7 13ZM11 13L11 14L10 14L10 15L8 15L8 18L7 18L7 17L6 17L6 18L5 18L5 17L3 17L3 20L4 20L4 18L5 18L5 19L6 19L6 20L7 20L7 19L8 19L8 18L9 18L9 17L10 17L10 18L11 18L11 19L9 19L9 20L8 20L8 22L9 22L9 20L10 20L10 22L12 22L12 21L11 21L11 20L12 20L12 19L13 19L13 21L14 21L14 22L13 22L13 24L12 24L12 27L11 27L11 29L12 29L12 28L13 28L13 29L14 29L14 23L15 23L15 21L16 21L16 20L17 20L17 19L16 19L16 20L15 20L15 21L14 21L14 19L15 19L15 17L16 17L16 18L17 18L17 16L16 16L16 15L15 15L15 17L14 17L14 18L13 18L13 17L12 17L12 16L10 16L10 15L11 15L11 14L12 14L12 13ZM25 13L25 14L24 14L24 15L25 15L25 16L23 16L23 15L22 15L22 16L23 16L23 17L22 17L22 19L23 19L23 20L22 20L22 21L21 21L21 22L23 22L23 20L24 20L24 19L25 19L25 21L24 21L24 22L25 22L25 23L27 23L27 22L25 22L25 21L26 21L26 19L28 19L28 18L29 18L29 17L30 17L30 18L31 18L31 14L30 14L30 15L28 15L28 14L29 14L29 13L28 13L28 14L27 14L27 13ZM26 14L26 16L25 16L25 18L26 18L26 17L27 17L27 18L28 18L28 17L29 17L29 16L28 16L28 17L27 17L27 14ZM20 16L20 17L21 17L21 16ZM23 17L23 19L24 19L24 17ZM6 18L6 19L7 19L7 18ZM18 19L18 20L19 20L19 19ZM27 20L27 21L28 21L28 20ZM2 21L2 22L3 22L3 21ZM9 23L9 24L10 24L10 25L9 25L9 26L11 26L11 23ZM5 24L5 25L7 25L7 24ZM25 25L25 28L28 28L28 25ZM26 26L26 27L27 27L27 26ZM29 26L29 28L30 28L30 29L27 29L27 31L28 31L28 30L30 30L30 29L32 29L32 27L31 27L31 26ZM9 27L9 28L10 28L10 27ZM22 29L22 30L23 30L23 29ZM25 29L25 31L26 31L26 29ZM10 30L10 32L11 32L11 30ZM12 30L12 31L13 31L13 30ZM22 31L22 32L23 32L23 31ZM32 32L32 33L33 33L33 32ZM0 0L0 7L7 7L7 0ZM1 1L1 6L6 6L6 1ZM2 2L2 5L5 5L5 2ZM26 0L26 7L33 7L33 0ZM27 1L27 6L32 6L32 1ZM28 2L28 5L31 5L31 2ZM0 26L0 33L7 33L7 26ZM1 27L1 32L6 32L6 27ZM2 28L2 31L5 31L5 28Z" fill="#000000"/></g></g></svg>
