<?xml version="1.0" encoding="UTF-8"?>
<svg xmlns="http://www.w3.org/2000/svg" version="1.1" width="250" height="250" viewBox="0 0 250 250"><rect x="0" y="0" width="250" height="250" fill="#ffffff"/><g transform="scale(8.621)"><g transform="translate(0,0)"><path fill-rule="evenodd" d="M8 0L8 2L9 2L9 3L10 3L10 2L9 2L9 1L11 1L11 2L12 2L12 0ZM13 0L13 1L14 1L14 2L13 2L13 3L11 3L11 5L9 5L9 4L8 4L8 9L10 9L10 7L11 7L11 5L12 5L12 7L13 7L13 8L11 8L11 9L12 9L12 11L11 11L11 10L9 10L9 11L8 11L8 12L9 12L9 13L10 13L10 14L6 14L6 13L7 13L7 12L6 12L6 13L5 13L5 11L7 11L7 10L6 10L6 9L7 9L7 8L5 8L5 10L4 10L4 9L3 9L3 8L0 8L0 10L1 10L1 11L0 11L0 12L1 12L1 15L0 15L0 17L1 17L1 15L2 15L2 16L3 16L3 17L4 17L4 18L5 18L5 17L7 17L7 16L6 16L6 15L8 15L8 16L9 16L9 15L10 15L10 14L11 14L11 15L12 15L12 14L11 14L11 12L13 12L13 14L15 14L15 15L16 15L16 17L15 17L15 18L13 18L13 17L14 17L14 15L13 15L13 16L10 16L10 17L12 17L12 19L11 19L11 20L13 20L13 22L15 22L15 23L16 23L16 22L17 22L17 23L18 23L18 22L17 22L17 20L16 20L16 21L15 21L15 19L16 19L16 18L17 18L17 19L18 19L18 20L19 20L19 19L21 19L21 18L20 18L20 16L18 16L18 17L17 17L17 15L18 15L18 13L17 13L17 11L18 11L18 9L17 9L17 11L16 11L16 7L17 7L17 6L16 6L16 7L15 7L15 4L14 4L14 5L13 5L13 3L15 3L15 1L14 1L14 0ZM16 0L16 1L17 1L17 3L16 3L16 5L17 5L17 4L18 4L18 5L19 5L19 4L20 4L20 5L21 5L21 4L20 4L20 3L19 3L19 2L18 2L18 1L19 1L19 0ZM20 1L20 2L21 2L21 1ZM9 6L9 7L10 7L10 6ZM13 6L13 7L14 7L14 9L13 9L13 10L15 10L15 7L14 7L14 6ZM18 6L18 8L19 8L19 11L21 11L21 10L20 10L20 8L19 8L19 6ZM20 6L20 7L21 7L21 6ZM21 8L21 9L22 9L22 10L23 10L23 11L22 11L22 12L21 12L21 14L20 14L20 12L19 12L19 15L23 15L23 16L21 16L21 17L22 17L22 18L23 18L23 17L24 17L24 16L25 16L25 18L28 18L28 19L29 19L29 16L28 16L28 17L26 17L26 16L25 16L25 15L26 15L26 14L28 14L28 15L29 15L29 12L28 12L28 13L26 13L26 14L25 14L25 15L24 15L24 14L23 14L23 11L27 11L27 10L28 10L28 11L29 11L29 8L27 8L27 10L23 10L23 9L25 9L25 8ZM1 9L1 10L3 10L3 9ZM1 11L1 12L4 12L4 11ZM9 11L9 12L10 12L10 11ZM13 11L13 12L14 12L14 11ZM15 11L15 13L16 13L16 14L17 14L17 13L16 13L16 11ZM2 13L2 14L4 14L4 16L5 16L5 13ZM8 17L8 18L6 18L6 19L7 19L7 20L5 20L5 19L4 19L4 20L0 20L0 21L4 21L4 20L5 20L5 21L7 21L7 20L8 20L8 18L9 18L9 19L10 19L10 18L9 18L9 17ZM18 17L18 19L19 19L19 17ZM0 18L0 19L2 19L2 18ZM13 19L13 20L14 20L14 19ZM22 19L22 20L20 20L20 21L19 21L19 22L20 22L20 24L19 24L19 25L20 25L20 26L19 26L19 27L18 27L18 26L17 26L17 24L15 24L15 26L13 26L13 25L14 25L14 23L13 23L13 24L11 24L11 25L12 25L12 27L10 27L10 28L9 28L9 26L10 26L10 25L9 25L9 26L8 26L8 29L11 29L11 28L13 28L13 29L16 29L16 28L17 28L17 27L18 27L18 28L19 28L19 29L21 29L21 27L20 27L20 26L21 26L21 25L23 25L23 27L24 27L24 28L22 28L22 29L25 29L25 22L27 22L27 21L28 21L28 23L27 23L27 24L28 24L28 26L26 26L26 27L29 27L29 24L28 24L28 23L29 23L29 21L28 21L28 20L27 20L27 21L26 21L26 20L24 20L24 19ZM9 20L9 21L8 21L8 22L9 22L9 23L8 23L8 24L9 24L9 23L12 23L12 22L11 22L11 21L10 21L10 20ZM9 21L9 22L10 22L10 21ZM21 21L21 24L24 24L24 21ZM22 22L22 23L23 23L23 22ZM13 27L13 28L14 28L14 27ZM15 27L15 28L16 28L16 27ZM28 28L28 29L29 29L29 28ZM0 0L0 7L7 7L7 0ZM1 1L1 6L6 6L6 1ZM2 2L2 5L5 5L5 2ZM22 0L22 7L29 7L29 0ZM23 1L23 6L28 6L28 1ZM24 2L24 5L27 5L27 2ZM0 22L0 29L7 29L7 22ZM1 23L1 28L6 28L6 23ZM2 24L2 27L5 27L5 24Z" fill="#000000"/></g></g></svg>
