<?xml version="1.0" encoding="UTF-8"?>
<svg xmlns="http://www.w3.org/2000/svg" version="1.1" width="250" height="250" viewBox="0 0 250 250"><rect x="0" y="0" width="250" height="250" fill="#ffffff"/><g transform="scale(6.098)"><g transform="translate(0,0)"><path fill-rule="evenodd" d="M10 0L10 1L12 1L12 0ZM13 0L13 1L14 1L14 3L12 3L12 4L11 4L11 3L10 3L10 4L11 4L11 5L8 5L8 7L9 7L9 8L6 8L6 9L5 9L5 8L0 8L0 10L3 10L3 11L4 11L4 9L5 9L5 12L2 12L2 11L0 11L0 12L1 12L1 13L3 13L3 14L2 14L2 15L1 15L1 14L0 14L0 18L2 18L2 19L0 19L0 21L2 21L2 19L4 19L4 20L3 20L3 21L5 21L5 22L4 22L4 23L3 23L3 24L2 24L2 23L0 23L0 24L2 24L2 26L1 26L1 29L0 29L0 33L1 33L1 29L2 29L2 30L4 30L4 32L2 32L2 33L4 33L4 32L5 32L5 33L7 33L7 32L5 32L5 31L7 31L7 30L8 30L8 35L9 35L9 31L10 31L10 33L11 33L11 34L13 34L13 35L12 35L12 36L14 36L14 37L12 37L12 38L14 38L14 40L13 40L13 39L12 39L12 40L13 40L13 41L14 41L14 40L15 40L15 41L16 41L16 40L15 40L15 39L16 39L16 38L17 38L17 37L18 37L18 36L19 36L19 34L20 34L20 33L21 33L21 36L22 36L22 38L21 38L21 37L19 37L19 38L18 38L18 40L20 40L20 41L21 41L21 40L23 40L23 39L22 39L22 38L24 38L24 37L28 37L28 38L27 38L27 40L26 40L26 41L30 41L30 40L31 40L31 41L32 41L32 39L33 39L33 41L36 41L36 39L37 39L37 40L38 40L38 41L39 41L39 40L40 40L40 39L39 39L39 40L38 40L38 39L37 39L37 38L38 38L38 37L40 37L40 38L41 38L41 37L40 37L40 36L41 36L41 35L40 35L40 34L41 34L41 31L40 31L40 34L39 34L39 36L38 36L38 35L37 35L37 34L38 34L38 33L39 33L39 32L38 32L38 29L39 29L39 28L40 28L40 26L41 26L41 23L40 23L40 22L41 22L41 21L40 21L40 20L41 20L41 19L40 19L40 18L41 18L41 17L40 17L40 16L41 16L41 15L39 15L39 14L40 14L40 13L41 13L41 12L40 12L40 10L41 10L41 9L40 9L40 8L39 8L39 10L37 10L37 9L38 9L38 8L37 8L37 9L36 9L36 8L35 8L35 9L34 9L34 8L33 8L33 6L32 6L32 8L33 8L33 13L32 13L32 11L31 11L31 10L32 10L32 9L30 9L30 8L29 8L29 6L30 6L30 7L31 7L31 5L33 5L33 3L32 3L32 2L31 2L31 3L32 3L32 4L30 4L30 3L29 3L29 2L28 2L28 1L29 1L29 0L28 0L28 1L27 1L27 4L28 4L28 3L29 3L29 4L30 4L30 5L26 5L26 3L25 3L25 2L26 2L26 1L25 1L25 0L22 0L22 1L21 1L21 2L20 2L20 3L19 3L19 2L18 2L18 3L15 3L15 2L16 2L16 1L15 1L15 0ZM18 0L18 1L20 1L20 0ZM30 0L30 1L31 1L31 0ZM32 0L32 1L33 1L33 0ZM8 1L8 2L9 2L9 1ZM22 1L22 2L24 2L24 1ZM8 3L8 4L9 4L9 3ZM21 3L21 7L20 7L20 5L19 5L19 7L20 7L20 8L18 8L18 6L17 6L17 5L18 5L18 4L17 4L17 5L16 5L16 6L15 6L15 5L14 5L14 4L12 4L12 5L11 5L11 7L12 7L12 5L14 5L14 6L13 6L13 8L11 8L11 9L10 9L10 8L9 8L9 9L8 9L8 11L6 11L6 12L8 12L8 14L7 14L7 13L4 13L4 14L3 14L3 16L1 16L1 17L2 17L2 18L4 18L4 16L9 16L9 19L11 19L11 20L9 20L9 21L8 21L8 20L7 20L7 19L8 19L8 18L7 18L7 17L6 17L6 18L7 18L7 19L6 19L6 20L5 20L5 21L6 21L6 22L5 22L5 24L7 24L7 25L4 25L4 24L3 24L3 26L7 26L7 25L8 25L8 28L9 28L9 27L11 27L11 28L10 28L10 29L9 29L9 30L13 30L13 31L12 31L12 33L13 33L13 32L14 32L14 34L16 34L16 32L19 32L19 31L20 31L20 30L19 30L19 29L21 29L21 30L22 30L22 31L24 31L24 32L26 32L26 33L24 33L24 34L22 34L22 36L23 36L23 37L24 37L24 36L23 36L23 35L24 35L24 34L25 34L25 36L26 36L26 34L28 34L28 35L29 35L29 36L28 36L28 37L29 37L29 36L31 36L31 37L32 37L32 38L37 38L37 37L38 37L38 36L37 36L37 37L32 37L32 36L31 36L31 35L29 35L29 34L30 34L30 33L31 33L31 34L32 34L32 32L36 32L36 31L35 31L35 30L34 30L34 31L33 31L33 30L31 30L31 29L32 29L32 26L33 26L33 25L37 25L37 26L39 26L39 25L38 25L38 24L40 24L40 23L39 23L39 21L38 21L38 22L37 22L37 23L35 23L35 24L33 24L33 23L34 23L34 22L35 22L35 21L37 21L37 20L33 20L33 17L34 17L34 18L35 18L35 15L36 15L36 17L38 17L38 20L39 20L39 15L38 15L38 14L39 14L39 13L40 13L40 12L39 12L39 11L38 11L38 12L39 12L39 13L37 13L37 12L36 12L36 11L37 11L37 10L36 10L36 9L35 9L35 10L34 10L34 11L35 11L35 12L34 12L34 13L33 13L33 14L34 14L34 16L33 16L33 17L32 17L32 18L30 18L30 17L31 17L31 16L30 16L30 15L32 15L32 14L31 14L31 11L29 11L29 10L30 10L30 9L29 9L29 10L28 10L28 11L26 11L26 10L25 10L25 11L24 11L24 10L21 10L21 9L24 9L24 8L26 8L26 6L25 6L25 7L24 7L24 5L25 5L25 3ZM23 4L23 5L24 5L24 4ZM9 6L9 7L10 7L10 6ZM14 6L14 7L15 7L15 6ZM16 6L16 7L17 7L17 6ZM22 6L22 7L21 7L21 8L22 8L22 7L23 7L23 6ZM27 6L27 7L28 7L28 6ZM13 8L13 9L11 9L11 10L12 10L12 11L13 11L13 10L14 10L14 12L15 12L15 11L16 11L16 10L15 10L15 9L16 9L16 8L15 8L15 9L14 9L14 8ZM6 9L6 10L7 10L7 9ZM18 9L18 10L17 10L17 11L18 11L18 10L20 10L20 9ZM8 11L8 12L9 12L9 13L10 13L10 14L8 14L8 15L10 15L10 17L11 17L11 18L13 18L13 20L14 20L14 21L16 21L16 22L15 22L15 23L17 23L17 21L18 21L18 22L22 22L22 21L21 21L21 20L22 20L22 19L23 19L23 18L24 18L24 19L26 19L26 18L24 18L24 17L27 17L27 16L29 16L29 17L30 17L30 16L29 16L29 14L30 14L30 12L29 12L29 13L28 13L28 12L27 12L27 13L28 13L28 14L26 14L26 15L27 15L27 16L25 16L25 15L24 15L24 16L23 16L23 15L21 15L21 14L22 14L22 13L19 13L19 14L15 14L15 17L14 17L14 16L13 16L13 17L12 17L12 15L13 15L13 14L11 14L11 13L13 13L13 12L11 12L11 13L10 13L10 12L9 12L9 11ZM21 11L21 12L22 12L22 11ZM17 12L17 13L18 13L18 12ZM23 12L23 14L24 14L24 12ZM25 12L25 13L26 13L26 12ZM34 13L34 14L35 14L35 13ZM36 13L36 15L37 15L37 16L38 16L38 15L37 15L37 13ZM4 14L4 15L5 15L5 14ZM6 14L6 15L7 15L7 14ZM10 14L10 15L11 15L11 14ZM19 14L19 16L18 16L18 15L17 15L17 16L18 16L18 17L15 17L15 18L16 18L16 19L14 19L14 20L16 20L16 21L17 21L17 20L19 20L19 21L20 21L20 20L21 20L21 18L22 18L22 17L23 17L23 16L21 16L21 17L20 17L20 14ZM19 17L19 18L17 18L17 19L19 19L19 18L20 18L20 17ZM27 18L27 20L26 20L26 22L27 22L27 23L26 23L26 24L24 24L24 25L21 25L21 24L23 24L23 23L20 23L20 25L19 25L19 26L18 26L18 28L19 28L19 26L20 26L20 25L21 25L21 26L24 26L24 25L28 25L28 23L29 23L29 22L30 22L30 23L31 23L31 24L32 24L32 23L31 23L31 22L33 22L33 21L31 21L31 20L32 20L32 19L30 19L30 20L29 20L29 19L28 19L28 18ZM6 20L6 21L7 21L7 22L6 22L6 23L8 23L8 25L9 25L9 26L13 26L13 25L14 25L14 26L15 26L15 27L14 27L14 28L15 28L15 29L14 29L14 30L15 30L15 31L14 31L14 32L16 32L16 31L17 31L17 30L18 30L18 31L19 31L19 30L18 30L18 29L16 29L16 28L17 28L17 27L16 27L16 26L15 26L15 25L16 25L16 24L15 24L15 25L14 25L14 24L13 24L13 23L14 23L14 22L13 22L13 21L12 21L12 20L11 20L11 21L9 21L9 22L8 22L8 21L7 21L7 20ZM23 20L23 22L24 22L24 23L25 23L25 22L24 22L24 21L25 21L25 20ZM27 20L27 22L28 22L28 21L29 21L29 20ZM11 21L11 24L10 24L10 23L9 23L9 24L10 24L10 25L12 25L12 23L13 23L13 22L12 22L12 21ZM37 23L37 24L38 24L38 23ZM17 24L17 25L18 25L18 24ZM29 24L29 25L30 25L30 26L29 26L29 27L30 27L30 26L32 26L32 25L30 25L30 24ZM27 26L27 27L26 27L26 28L25 28L25 27L24 27L24 28L22 28L22 27L21 27L21 29L22 29L22 30L24 30L24 31L25 31L25 30L26 30L26 31L28 31L28 32L29 32L29 33L30 33L30 32L29 32L29 31L28 31L28 30L29 30L29 29L30 29L30 28L29 28L29 29L28 29L28 28L27 28L27 27L28 27L28 26ZM6 27L6 28L7 28L7 27ZM12 27L12 29L13 29L13 27ZM33 27L33 28L34 28L34 29L37 29L37 27L36 27L36 28L34 28L34 27ZM38 27L38 28L39 28L39 27ZM2 28L2 29L3 29L3 28ZM4 28L4 29L5 29L5 30L7 30L7 29L5 29L5 28ZM24 28L24 30L25 30L25 28ZM15 29L15 30L16 30L16 29ZM27 29L27 30L28 30L28 29ZM40 29L40 30L41 30L41 29ZM21 32L21 33L23 33L23 32ZM17 33L17 35L16 35L16 37L14 37L14 38L16 38L16 37L17 37L17 36L18 36L18 33ZM33 33L33 36L36 36L36 33ZM34 34L34 35L35 35L35 34ZM14 35L14 36L15 36L15 35ZM8 36L8 41L10 41L10 40L11 40L11 39L10 39L10 40L9 40L9 38L11 38L11 36ZM19 38L19 39L20 39L20 40L21 40L21 38ZM28 38L28 40L30 40L30 39L31 39L31 38L30 38L30 39L29 39L29 38ZM24 39L24 41L25 41L25 39ZM34 39L34 40L35 40L35 39ZM0 0L0 7L7 7L7 0ZM1 1L1 6L6 6L6 1ZM2 2L2 5L5 5L5 2ZM34 0L34 7L41 7L41 0ZM35 1L35 6L40 6L40 1ZM36 2L36 5L39 5L39 2ZM0 34L0 41L7 41L7 34ZM1 35L1 40L6 40L6 35ZM2 36L2 39L5 39L5 36Z" fill="#000000"/></g></g></svg>
