<?xml version="1.0" encoding="UTF-8"?>
<svg xmlns="http://www.w3.org/2000/svg" version="1.1" width="500" height="500" viewBox="0 0 500 500"><rect x="0" y="0" width="500" height="500" fill="#ffffff"/><g transform="scale(10.204)"><g transform="translate(0,0)"><path fill-rule="evenodd" d="M10 0L10 1L15 1L15 4L16 4L16 5L14 5L14 4L13 4L13 5L14 5L14 8L15 8L15 9L14 9L14 10L13 10L13 6L12 6L12 8L11 8L11 6L10 6L10 5L12 5L12 3L14 3L14 2L10 2L10 4L9 4L9 3L8 3L8 4L9 4L9 5L8 5L8 7L9 7L9 6L10 6L10 8L11 8L11 10L13 10L13 11L14 11L14 12L13 12L13 13L15 13L15 14L16 14L16 13L15 13L15 11L16 11L16 9L17 9L17 11L18 11L18 9L19 9L19 8L20 8L20 9L25 9L25 10L24 10L24 11L23 11L23 12L22 12L22 10L20 10L20 11L21 11L21 12L22 12L22 13L21 13L21 15L20 15L20 14L19 14L19 13L18 13L18 12L17 12L17 13L18 13L18 14L17 14L17 16L16 16L16 15L14 15L14 16L16 16L16 17L17 17L17 18L18 18L18 19L17 19L17 20L18 20L18 21L16 21L16 19L15 19L15 21L16 21L16 22L15 22L15 23L14 23L14 24L15 24L15 25L13 25L13 24L12 24L12 23L13 23L13 22L14 22L14 21L12 21L12 20L14 20L14 19L12 19L12 18L15 18L15 17L12 17L12 18L10 18L10 17L11 17L11 16L9 16L9 17L7 17L7 16L8 16L8 15L7 15L7 14L11 14L11 15L13 15L13 14L12 14L12 11L10 11L10 13L9 13L9 12L8 12L8 11L9 11L9 10L6 10L6 9L9 9L9 8L6 8L6 9L5 9L5 8L0 8L0 9L1 9L1 10L2 10L2 11L4 11L4 13L3 13L3 12L1 12L1 13L0 13L0 17L1 17L1 18L0 18L0 19L1 19L1 18L2 18L2 19L4 19L4 18L5 18L5 17L7 17L7 18L6 18L6 19L5 19L5 20L4 20L4 21L3 21L3 22L2 22L2 24L1 24L1 23L0 23L0 25L1 25L1 27L2 27L2 28L0 28L0 30L2 30L2 31L0 31L0 34L1 34L1 35L2 35L2 34L1 34L1 33L3 33L3 34L4 34L4 35L5 35L5 34L6 34L6 35L7 35L7 34L6 34L6 33L7 33L7 32L4 32L4 31L8 31L8 34L9 34L9 35L10 35L10 36L11 36L11 35L10 35L10 33L11 33L11 32L12 32L12 31L11 31L11 30L13 30L13 29L15 29L15 30L16 30L16 29L15 29L15 25L19 25L19 26L20 26L20 27L19 27L19 29L18 29L18 28L17 28L17 27L18 27L18 26L16 26L16 28L17 28L17 29L18 29L18 30L17 30L17 31L18 31L18 32L17 32L17 33L19 33L19 34L18 34L18 35L17 35L17 36L18 36L18 37L16 37L16 36L15 36L15 37L16 37L16 38L15 38L15 39L14 39L14 40L15 40L15 41L12 41L12 39L10 39L10 38L9 38L9 40L8 40L8 43L9 43L9 44L8 44L8 49L9 49L9 46L11 46L11 47L12 47L12 48L14 48L14 47L13 47L13 45L15 45L15 46L16 46L16 45L15 45L15 41L17 41L17 43L18 43L18 41L19 41L19 42L20 42L20 43L19 43L19 45L18 45L18 44L17 44L17 45L18 45L18 46L17 46L17 47L18 47L18 48L16 48L16 47L15 47L15 49L19 49L19 45L22 45L22 46L24 46L24 47L21 47L21 46L20 46L20 49L22 49L22 48L24 48L24 49L28 49L28 48L29 48L29 47L30 47L30 46L32 46L32 44L33 44L33 45L34 45L34 43L35 43L35 44L36 44L36 45L37 45L37 44L36 44L36 43L37 43L37 42L38 42L38 43L40 43L40 44L38 44L38 45L40 45L40 46L37 46L37 48L35 48L35 49L38 49L38 47L39 47L39 49L40 49L40 46L41 46L41 49L42 49L42 48L43 48L43 49L44 49L44 48L43 48L43 47L42 47L42 45L44 45L44 46L46 46L46 47L45 47L45 48L46 48L46 49L49 49L49 47L48 47L48 48L46 48L46 47L47 47L47 46L46 46L46 45L47 45L47 44L48 44L48 45L49 45L49 42L48 42L48 41L47 41L47 40L48 40L48 39L49 39L49 38L48 38L48 37L49 37L49 34L48 34L48 35L47 35L47 32L48 32L48 31L49 31L49 30L48 30L48 31L47 31L47 32L46 32L46 31L45 31L45 30L47 30L47 29L48 29L48 28L49 28L49 26L48 26L48 25L49 25L49 24L48 24L48 25L47 25L47 24L46 24L46 21L47 21L47 23L49 23L49 22L48 22L48 21L49 21L49 20L48 20L48 21L47 21L47 20L46 20L46 21L44 21L44 22L43 22L43 21L41 21L41 22L38 22L38 20L40 20L40 18L38 18L38 20L36 20L36 19L37 19L37 16L39 16L39 14L38 14L38 13L39 13L39 12L40 12L40 13L41 13L41 12L42 12L42 14L43 14L43 12L42 12L42 11L41 11L41 10L40 10L40 9L42 9L42 10L43 10L43 11L44 11L44 12L45 12L45 13L44 13L44 14L45 14L45 15L43 15L43 16L46 16L46 17L47 17L47 18L48 18L48 19L49 19L49 18L48 18L48 17L49 17L49 14L48 14L48 13L49 13L49 9L48 9L48 8L47 8L47 10L46 10L46 8L45 8L45 9L44 9L44 8L43 8L43 9L42 9L42 8L40 8L40 7L41 7L41 6L40 6L40 7L39 7L39 5L38 5L38 3L36 3L36 2L37 2L37 0L35 0L35 1L34 1L34 2L33 2L33 1L32 1L32 0L30 0L30 1L29 1L29 0L27 0L27 1L24 1L24 0L23 0L23 1L22 1L22 0L21 0L21 1L22 1L22 3L21 3L21 2L19 2L19 1L18 1L18 2L17 2L17 1L16 1L16 0ZM40 0L40 1L38 1L38 2L39 2L39 4L40 4L40 3L41 3L41 0ZM8 1L8 2L9 2L9 1ZM27 1L27 2L26 2L26 3L25 3L25 2L23 2L23 3L22 3L22 4L24 4L24 3L25 3L25 4L27 4L27 7L28 7L28 4L29 4L29 3L27 3L27 2L28 2L28 1ZM30 1L30 4L31 4L31 5L29 5L29 8L28 8L28 9L29 9L29 10L27 10L27 9L26 9L26 10L25 10L25 11L24 11L24 12L23 12L23 13L22 13L22 14L23 14L23 13L24 13L24 14L28 14L28 15L26 15L26 19L25 19L25 17L24 17L24 16L25 16L25 15L21 15L21 16L23 16L23 17L20 17L20 16L19 16L19 17L18 17L18 18L23 18L23 19L22 19L22 20L21 20L21 19L20 19L20 20L21 20L21 21L20 21L20 22L19 22L19 23L20 23L20 24L19 24L19 25L20 25L20 26L21 26L21 27L20 27L20 28L21 28L21 29L19 29L19 31L20 31L20 32L21 32L21 31L23 31L23 32L24 32L24 33L22 33L22 34L21 34L21 33L20 33L20 34L21 34L21 35L19 35L19 36L21 36L21 35L22 35L22 38L21 38L21 37L19 37L19 40L21 40L21 39L23 39L23 40L24 40L24 37L25 37L25 36L24 36L24 37L23 37L23 35L27 35L27 37L29 37L29 38L28 38L28 39L27 39L27 38L25 38L25 39L27 39L27 40L28 40L28 41L27 41L27 42L28 42L28 43L29 43L29 44L28 44L28 45L29 45L29 46L30 46L30 45L31 45L31 44L30 44L30 43L34 43L34 42L35 42L35 43L36 43L36 42L35 42L35 41L34 41L34 42L32 42L32 41L33 41L33 40L31 40L31 38L32 38L32 39L34 39L34 40L35 40L35 39L34 39L34 38L35 38L35 37L36 37L36 36L37 36L37 35L36 35L36 36L35 36L35 35L34 35L34 34L36 34L36 33L34 33L34 34L33 34L33 32L32 32L32 30L33 30L33 28L34 28L34 30L35 30L35 31L34 31L34 32L40 32L40 31L42 31L42 32L44 32L44 30L45 30L45 29L47 29L47 27L48 27L48 26L47 26L47 25L46 25L46 24L45 24L45 25L46 25L46 26L47 26L47 27L45 27L45 29L43 29L43 31L42 31L42 28L44 28L44 27L42 27L42 28L41 28L41 27L40 27L40 24L39 24L39 23L38 23L38 22L35 22L35 21L36 21L36 20L35 20L35 19L34 19L34 18L36 18L36 17L34 17L34 18L33 18L33 16L31 16L31 17L32 17L32 18L31 18L31 19L30 19L30 21L31 21L31 19L34 19L34 22L35 22L35 24L37 24L37 25L38 25L38 26L37 26L37 27L36 27L36 28L34 28L34 27L32 27L32 29L31 29L31 30L29 30L29 29L30 29L30 28L29 28L29 27L27 27L27 29L25 29L25 32L24 32L24 30L21 30L21 29L23 29L23 28L24 28L24 27L22 27L22 25L20 25L20 24L22 24L22 23L21 23L21 21L22 21L22 20L23 20L23 21L24 21L24 22L27 22L27 21L29 21L29 20L27 20L27 19L29 19L29 17L30 17L30 16L28 16L28 15L34 15L34 16L35 16L35 15L38 15L38 14L35 14L35 13L36 13L36 12L37 12L37 13L38 13L38 12L39 12L39 11L38 11L38 10L39 10L39 9L38 9L38 8L39 8L39 7L38 7L38 6L37 6L37 7L36 7L36 3L35 3L35 2L36 2L36 1L35 1L35 2L34 2L34 5L32 5L32 4L33 4L33 2L32 2L32 4L31 4L31 1ZM16 2L16 4L18 4L18 3L17 3L17 2ZM19 3L19 4L21 4L21 3ZM17 5L17 8L19 8L19 7L20 7L20 5L19 5L19 7L18 7L18 5ZM23 5L23 8L26 8L26 5ZM34 5L34 7L35 7L35 5ZM15 6L15 8L16 8L16 6ZM21 6L21 8L22 8L22 6ZM24 6L24 7L25 7L25 6ZM30 6L30 8L31 8L31 6ZM32 6L32 8L33 8L33 11L30 11L30 10L32 10L32 9L30 9L30 10L29 10L29 11L27 11L27 10L26 10L26 11L27 11L27 12L29 12L29 13L28 13L28 14L32 14L32 12L33 12L33 14L34 14L34 15L35 15L35 14L34 14L34 11L35 11L35 12L36 12L36 9L37 9L37 8L35 8L35 10L34 10L34 8L33 8L33 6ZM2 9L2 10L3 10L3 9ZM4 9L4 11L5 11L5 12L7 12L7 13L6 13L6 14L4 14L4 15L2 15L2 14L3 14L3 13L1 13L1 15L2 15L2 16L3 16L3 17L5 17L5 16L7 16L7 15L6 15L6 14L7 14L7 13L8 13L8 12L7 12L7 11L6 11L6 10L5 10L5 9ZM43 9L43 10L44 10L44 11L45 11L45 12L48 12L48 11L46 11L46 10L44 10L44 9ZM29 11L29 12L30 12L30 13L31 13L31 12L30 12L30 11ZM24 12L24 13L25 13L25 12ZM45 13L45 14L46 14L46 16L47 16L47 13ZM40 14L40 16L42 16L42 15L41 15L41 14ZM4 15L4 16L5 16L5 15ZM27 16L27 18L28 18L28 16ZM42 17L42 18L41 18L41 19L42 19L42 20L45 20L45 19L44 19L44 18L43 18L43 17ZM7 18L7 19L6 19L6 20L7 20L7 19L8 19L8 21L4 21L4 22L3 22L3 23L4 23L4 22L8 22L8 21L11 21L11 20L9 20L9 19L10 19L10 18L9 18L9 19L8 19L8 18ZM42 18L42 19L43 19L43 18ZM23 19L23 20L24 20L24 21L25 21L25 20L24 20L24 19ZM1 20L1 21L2 21L2 20ZM32 20L32 21L33 21L33 20ZM11 22L11 23L10 23L10 24L11 24L11 25L12 25L12 24L11 24L11 23L12 23L12 22ZM17 22L17 24L18 24L18 22ZM28 22L28 23L27 23L27 24L28 24L28 25L29 25L29 26L30 26L30 27L31 27L31 26L30 26L30 24L28 24L28 23L31 23L31 22ZM5 23L5 26L8 26L8 23ZM15 23L15 24L16 24L16 23ZM23 23L23 26L26 26L26 23ZM41 23L41 26L44 26L44 23ZM2 24L2 26L3 26L3 27L4 27L4 28L5 28L5 29L6 29L6 30L8 30L8 29L6 29L6 28L8 28L8 27L4 27L4 26L3 26L3 24ZM6 24L6 25L7 25L7 24ZM24 24L24 25L25 25L25 24ZM31 24L31 25L32 25L32 26L33 26L33 24ZM38 24L38 25L39 25L39 24ZM42 24L42 25L43 25L43 24ZM9 25L9 31L10 31L10 32L9 32L9 33L10 33L10 32L11 32L11 31L10 31L10 29L13 29L13 28L14 28L14 27L12 27L12 26L10 26L10 25ZM34 25L34 26L35 26L35 25ZM38 26L38 27L39 27L39 26ZM21 27L21 28L22 28L22 27ZM2 28L2 29L3 29L3 31L2 31L2 32L3 32L3 33L4 33L4 34L5 34L5 33L4 33L4 32L3 32L3 31L4 31L4 29L3 29L3 28ZM36 28L36 31L37 31L37 30L38 30L38 31L40 31L40 28ZM38 29L38 30L39 30L39 29ZM27 30L27 31L26 31L26 32L27 32L27 33L28 33L28 32L29 32L29 31L28 31L28 30ZM15 31L15 32L16 32L16 31ZM27 31L27 32L28 32L28 31ZM30 31L30 34L29 34L29 37L30 37L30 38L31 38L31 37L32 37L32 36L33 36L33 37L35 37L35 36L34 36L34 35L32 35L32 36L31 36L31 35L30 35L30 34L32 34L32 33L31 33L31 31ZM45 32L45 33L43 33L43 35L38 35L38 37L37 37L37 39L36 39L36 40L37 40L37 41L38 41L38 42L39 42L39 41L38 41L38 40L40 40L40 39L42 39L42 40L45 40L45 41L46 41L46 40L47 40L47 39L46 39L46 40L45 40L45 37L43 37L43 38L44 38L44 39L42 39L42 36L47 36L47 37L48 37L48 36L47 36L47 35L46 35L46 32ZM13 33L13 34L12 34L12 35L13 35L13 36L12 36L12 37L11 37L11 38L12 38L12 37L13 37L13 38L14 38L14 37L13 37L13 36L14 36L14 35L13 35L13 34L15 34L15 35L16 35L16 34L15 34L15 33ZM24 33L24 34L25 34L25 33ZM38 33L38 34L39 34L39 33ZM40 33L40 34L42 34L42 33ZM27 34L27 35L28 35L28 34ZM44 34L44 35L45 35L45 34ZM6 36L6 37L3 37L3 38L5 38L5 39L7 39L7 38L8 38L8 37L7 37L7 36ZM39 36L39 38L38 38L38 39L40 39L40 36ZM0 37L0 38L1 38L1 40L0 40L0 41L3 41L3 40L4 40L4 39L2 39L2 38L1 38L1 37ZM6 37L6 38L7 38L7 37ZM17 38L17 39L18 39L18 38ZM20 38L20 39L21 39L21 38ZM15 39L15 40L16 40L16 39ZM28 39L28 40L29 40L29 41L28 41L28 42L29 42L29 43L30 43L30 42L31 42L31 40L29 40L29 39ZM6 40L6 41L7 41L7 40ZM9 40L9 43L10 43L10 42L12 42L12 41L11 41L11 40ZM20 41L20 42L22 42L22 41ZM23 41L23 44L26 44L26 41ZM29 41L29 42L30 42L30 41ZM41 41L41 44L44 44L44 41ZM24 42L24 43L25 43L25 42ZM42 42L42 43L43 43L43 42ZM45 42L45 44L47 44L47 43L48 43L48 42ZM12 43L12 44L14 44L14 43ZM10 44L10 45L11 45L11 46L12 46L12 45L11 45L11 44ZM24 45L24 46L25 46L25 48L28 48L28 47L27 47L27 45ZM33 46L33 47L31 47L31 48L33 48L33 49L34 49L34 47L35 47L35 46ZM10 48L10 49L11 49L11 48ZM0 0L0 7L7 7L7 0ZM1 1L1 6L6 6L6 1ZM2 2L2 5L5 5L5 2ZM42 0L42 7L49 7L49 0ZM43 1L43 6L48 6L48 1ZM44 2L44 5L47 5L47 2ZM0 42L0 49L7 49L7 42ZM1 43L1 48L6 48L6 43ZM2 44L2 47L5 47L5 44Z" fill="#000000"/></g></g></svg>
