<?xml version="1.0" encoding="UTF-8"?>
<svg xmlns="http://www.w3.org/2000/svg" version="1.1" width="500" height="500" viewBox="0 0 500 500"><rect x="0" y="0" width="500" height="500" fill="#ffffff"/><g transform="scale(10.204)"><g transform="translate(0,0)"><path fill-rule="evenodd" d="M8 0L8 1L9 1L9 2L8 2L8 5L9 5L9 6L8 6L8 7L9 7L9 6L10 6L10 8L12 8L12 7L13 7L13 6L14 6L14 7L15 7L15 8L17 8L17 10L18 10L18 12L17 12L17 11L14 11L14 10L16 10L16 9L14 9L14 8L13 8L13 9L14 9L14 10L12 10L12 9L9 9L9 8L8 8L8 9L7 9L7 8L6 8L6 9L7 9L7 10L4 10L4 11L5 11L5 12L6 12L6 13L5 13L5 14L4 14L4 13L3 13L3 15L2 15L2 13L1 13L1 12L0 12L0 13L1 13L1 15L0 15L0 16L1 16L1 17L0 17L0 19L1 19L1 20L2 20L2 21L0 21L0 23L1 23L1 24L2 24L2 26L0 26L0 27L2 27L2 28L0 28L0 30L1 30L1 31L0 31L0 33L1 33L1 34L2 34L2 33L3 33L3 32L4 32L4 33L7 33L7 34L4 34L4 35L3 35L3 36L1 36L1 35L0 35L0 38L1 38L1 40L0 40L0 41L3 41L3 40L4 40L4 39L2 39L2 38L3 38L3 37L4 37L4 38L5 38L5 39L7 39L7 40L6 40L6 41L8 41L8 42L10 42L10 41L11 41L11 40L12 40L12 41L13 41L13 40L12 40L12 39L14 39L14 42L11 42L11 43L12 43L12 44L11 44L11 45L8 45L8 49L11 49L11 48L10 48L10 46L11 46L11 45L12 45L12 46L13 46L13 45L12 45L12 44L13 44L13 43L15 43L15 44L14 44L14 45L15 45L15 46L14 46L14 47L16 47L16 48L15 48L15 49L19 49L19 48L20 48L20 49L22 49L22 48L24 48L24 49L28 49L28 47L29 47L29 44L30 44L30 48L31 48L31 46L32 46L32 48L33 48L33 49L34 49L34 48L35 48L35 49L38 49L38 48L37 48L37 47L38 47L38 46L34 46L34 48L33 48L33 46L32 46L32 45L31 45L31 44L32 44L32 43L31 43L31 44L30 44L30 42L29 42L29 43L28 43L28 42L27 42L27 39L26 39L26 37L27 37L27 36L29 36L29 37L28 37L28 40L29 40L29 38L30 38L30 39L31 39L31 40L32 40L32 41L31 41L31 42L33 42L33 40L34 40L34 43L35 43L35 42L36 42L36 44L37 44L37 45L39 45L39 44L40 44L40 46L42 46L42 47L40 47L40 48L39 48L39 49L40 49L40 48L41 48L41 49L42 49L42 47L43 47L43 49L44 49L44 47L45 47L45 46L46 46L46 49L49 49L49 48L47 48L47 47L49 47L49 46L46 46L46 45L45 45L45 44L46 44L46 43L45 43L45 41L47 41L47 42L48 42L48 43L49 43L49 40L48 40L48 38L49 38L49 36L48 36L48 34L47 34L47 33L46 33L46 32L44 32L44 33L46 33L46 34L45 34L45 36L44 36L44 35L42 35L42 37L41 37L41 38L40 38L40 42L38 42L38 44L37 44L37 42L36 42L36 41L35 41L35 40L36 40L36 38L35 38L35 40L34 40L34 37L35 37L35 36L36 36L36 37L38 37L38 38L37 38L37 39L39 39L39 37L40 37L40 36L41 36L41 34L40 34L40 33L39 33L39 32L41 32L41 33L42 33L42 34L43 34L43 33L42 33L42 32L43 32L43 30L44 30L44 31L45 31L45 30L44 30L44 28L45 28L45 29L46 29L46 28L45 28L45 22L46 22L46 19L45 19L45 21L44 21L44 19L43 19L43 20L42 20L42 18L41 18L41 17L43 17L43 18L44 18L44 17L45 17L45 18L48 18L48 19L47 19L47 20L49 20L49 17L47 17L47 16L49 16L49 15L48 15L48 14L49 14L49 12L47 12L47 10L49 10L49 8L48 8L48 9L47 9L47 8L44 8L44 9L45 9L45 10L43 10L43 9L42 9L42 8L41 8L41 9L42 9L42 10L40 10L40 9L39 9L39 5L38 5L38 2L39 2L39 4L40 4L40 3L41 3L41 0L40 0L40 1L38 1L38 2L36 2L36 1L37 1L37 0L35 0L35 1L33 1L33 2L34 2L34 3L33 3L33 4L34 4L34 3L36 3L36 4L35 4L35 5L36 5L36 4L37 4L37 5L38 5L38 8L37 8L37 6L36 6L36 7L35 7L35 6L34 6L34 5L33 5L33 6L32 6L32 5L30 5L30 7L29 7L29 6L28 6L28 5L29 5L29 4L30 4L30 3L31 3L31 4L32 4L32 3L31 3L31 2L32 2L32 0L30 0L30 2L29 2L29 0L27 0L27 2L29 2L29 4L25 4L25 2L26 2L26 1L25 1L25 2L24 2L24 4L22 4L22 2L23 2L23 1L24 1L24 0L23 0L23 1L22 1L22 0L21 0L21 1L20 1L20 3L21 3L21 4L22 4L22 7L21 7L21 5L20 5L20 4L19 4L19 3L18 3L18 1L16 1L16 0L11 0L11 1L14 1L14 2L15 2L15 1L16 1L16 3L15 3L15 4L13 4L13 3L12 3L12 2L11 2L11 3L12 3L12 4L11 4L11 6L10 6L10 5L9 5L9 3L10 3L10 1L9 1L9 0ZM16 3L16 4L17 4L17 5L15 5L15 7L16 7L16 6L17 6L17 7L18 7L18 6L19 6L19 7L20 7L20 8L21 8L21 9L19 9L19 8L18 8L18 10L19 10L19 11L20 11L20 12L18 12L18 15L21 15L21 16L17 16L17 15L16 15L16 16L17 16L17 17L20 17L20 18L21 18L21 17L22 17L22 16L24 16L24 17L23 17L23 19L21 19L21 20L22 20L22 21L24 21L24 22L27 22L27 23L28 23L28 25L27 25L27 28L26 28L26 30L25 30L25 28L24 28L24 27L22 27L22 28L21 28L21 27L20 27L20 30L19 30L19 29L18 29L18 28L19 28L19 27L17 27L17 25L16 25L16 27L15 27L15 28L14 28L14 26L15 26L15 24L13 24L13 23L14 23L14 22L15 22L15 23L16 23L16 24L19 24L19 25L20 25L20 24L21 24L21 23L22 23L22 22L21 22L21 21L20 21L20 20L19 20L19 19L18 19L18 18L14 18L14 15L15 15L15 14L17 14L17 12L15 12L15 14L14 14L14 13L11 13L11 11L10 11L10 10L9 10L9 9L8 9L8 11L6 11L6 12L8 12L8 11L10 11L10 13L9 13L9 14L8 14L8 15L6 15L6 14L7 14L7 13L6 13L6 14L5 14L5 15L4 15L4 16L5 16L5 15L6 15L6 16L7 16L7 17L6 17L6 18L5 18L5 17L3 17L3 16L2 16L2 17L3 17L3 19L2 19L2 18L1 18L1 19L2 19L2 20L3 20L3 21L4 21L4 20L5 20L5 19L6 19L6 20L8 20L8 21L6 21L6 22L8 22L8 21L9 21L9 22L10 22L10 21L11 21L11 19L10 19L10 18L11 18L11 17L9 17L9 16L10 16L10 14L11 14L11 15L12 15L12 18L13 18L13 19L12 19L12 22L11 22L11 23L12 23L12 25L14 25L14 26L13 26L13 28L11 28L11 27L12 27L12 26L10 26L10 27L4 27L4 25L3 25L3 28L5 28L5 29L3 29L3 31L4 31L4 30L5 30L5 29L6 29L6 30L7 30L7 29L6 29L6 28L10 28L10 29L13 29L13 28L14 28L14 30L11 30L11 31L10 31L10 36L9 36L9 38L8 38L8 37L6 37L6 36L7 36L7 35L8 35L8 34L9 34L9 33L8 33L8 32L7 32L7 31L5 31L5 32L7 32L7 33L8 33L8 34L7 34L7 35L6 35L6 36L4 36L4 37L5 37L5 38L7 38L7 39L9 39L9 40L10 40L10 39L12 39L12 36L13 36L13 37L15 37L15 35L17 35L17 34L18 34L18 36L16 36L16 37L17 37L17 38L14 38L14 39L15 39L15 41L16 41L16 39L19 39L19 40L17 40L17 41L19 41L19 42L18 42L18 43L20 43L20 44L19 44L19 46L18 46L18 45L16 45L16 47L17 47L17 48L19 48L19 47L21 47L21 48L22 48L22 47L23 47L23 46L22 46L22 43L20 43L20 42L21 42L21 41L22 41L22 40L21 40L21 39L19 39L19 38L20 38L20 37L18 37L18 36L19 36L19 33L20 33L20 36L21 36L21 38L23 38L23 40L24 40L24 39L25 39L25 36L26 36L26 34L28 34L28 35L30 35L30 36L31 36L31 35L32 35L32 34L33 34L33 33L34 33L34 34L35 34L35 35L37 35L37 36L38 36L38 37L39 37L39 35L40 35L40 34L39 34L39 33L38 33L38 30L40 30L40 31L41 31L41 32L42 32L42 30L43 30L43 28L44 28L44 27L42 27L42 29L41 29L41 27L37 27L37 25L38 25L38 24L39 24L39 25L40 25L40 22L41 22L41 21L42 21L42 20L41 20L41 18L40 18L40 19L38 19L38 18L39 18L39 17L38 17L38 16L35 16L35 15L36 15L36 14L37 14L37 13L38 13L38 12L39 12L39 13L40 13L40 15L39 15L39 16L40 16L40 17L41 17L41 16L40 16L40 15L42 15L42 16L43 16L43 17L44 17L44 16L43 16L43 15L42 15L42 14L44 14L44 15L46 15L46 16L47 16L47 15L46 15L46 14L48 14L48 13L46 13L46 14L45 14L45 12L43 12L43 13L42 13L42 12L41 12L41 11L40 11L40 10L39 10L39 9L37 9L37 8L36 8L36 10L35 10L35 9L34 9L34 8L35 8L35 7L34 7L34 6L33 6L33 7L32 7L32 6L31 6L31 7L30 7L30 8L29 8L29 9L28 9L28 6L27 6L27 9L26 9L26 10L25 10L25 9L22 9L22 8L21 8L21 7L20 7L20 6L19 6L19 4L18 4L18 3ZM12 4L12 6L11 6L11 7L12 7L12 6L13 6L13 4ZM23 5L23 8L26 8L26 5ZM24 6L24 7L25 7L25 6ZM40 6L40 7L41 7L41 6ZM33 7L33 8L34 8L34 7ZM0 8L0 11L2 11L2 12L3 12L3 9L4 9L4 8ZM30 8L30 11L31 11L31 10L32 10L32 12L31 12L31 14L30 14L30 15L29 15L29 13L30 13L30 12L29 12L29 13L26 13L26 15L25 15L25 17L24 17L24 18L25 18L25 19L24 19L24 20L25 20L25 21L26 21L26 20L27 20L27 22L29 22L29 24L30 24L30 25L28 25L28 26L29 26L29 29L28 29L28 28L27 28L27 32L28 32L28 34L29 34L29 32L30 32L30 31L28 31L28 30L30 30L30 28L31 28L31 30L32 30L32 31L35 31L35 33L36 33L36 34L37 34L37 35L38 35L38 33L36 33L36 32L37 32L37 30L36 30L36 31L35 31L35 29L36 29L36 26L35 26L35 27L34 27L34 28L35 28L35 29L34 29L34 30L32 30L32 29L33 29L33 28L32 28L32 27L33 27L33 25L37 25L37 24L38 24L38 23L37 23L37 22L38 22L38 21L35 21L35 20L34 20L34 21L31 21L31 20L32 20L32 19L31 19L31 18L30 18L30 16L32 16L32 17L33 17L33 16L34 16L34 19L36 19L36 20L37 20L37 18L38 18L38 17L37 17L37 18L35 18L35 16L34 16L34 14L33 14L33 13L34 13L34 12L36 12L36 13L37 13L37 12L38 12L38 11L37 11L37 10L36 10L36 11L35 11L35 10L34 10L34 9L33 9L33 10L32 10L32 8ZM1 9L1 10L2 10L2 9ZM27 9L27 11L28 11L28 9ZM46 9L46 10L47 10L47 9ZM23 10L23 11L22 11L22 13L23 13L23 12L24 12L24 14L23 14L23 15L24 15L24 14L25 14L25 12L26 12L26 11L24 11L24 10ZM33 10L33 12L32 12L32 13L33 13L33 12L34 12L34 10ZM40 12L40 13L41 13L41 14L42 14L42 13L41 13L41 12ZM20 13L20 14L21 14L21 13ZM13 14L13 15L14 15L14 14ZM27 14L27 15L26 15L26 16L27 16L27 17L25 17L25 18L26 18L26 19L25 19L25 20L26 20L26 19L27 19L27 20L28 20L28 19L29 19L29 20L30 20L30 19L29 19L29 18L28 18L28 17L29 17L29 16L28 16L28 14ZM32 14L32 15L33 15L33 14ZM8 15L8 16L9 16L9 15ZM7 17L7 18L6 18L6 19L8 19L8 20L9 20L9 18L8 18L8 17ZM27 18L27 19L28 19L28 18ZM3 19L3 20L4 20L4 19ZM13 19L13 22L12 22L12 23L13 23L13 22L14 22L14 20L15 20L15 19ZM16 20L16 23L18 23L18 22L19 22L19 24L20 24L20 21L17 21L17 20ZM39 20L39 21L41 21L41 20ZM34 21L34 22L32 22L32 23L30 23L30 24L31 24L31 25L30 25L30 26L31 26L31 27L32 27L32 26L31 26L31 25L33 25L33 24L36 24L36 23L34 23L34 22L35 22L35 21ZM43 21L43 22L44 22L44 21ZM47 21L47 22L48 22L48 21ZM2 22L2 24L3 24L3 23L4 23L4 22ZM5 23L5 26L8 26L8 23ZM23 23L23 26L26 26L26 23ZM32 23L32 24L33 24L33 23ZM41 23L41 26L44 26L44 23ZM46 23L46 25L47 25L47 23ZM48 23L48 26L49 26L49 23ZM6 24L6 25L7 25L7 24ZM9 24L9 25L10 25L10 24ZM24 24L24 25L25 25L25 24ZM42 24L42 25L43 25L43 24ZM16 27L16 28L15 28L15 29L16 29L16 30L17 30L17 32L15 32L15 31L14 31L14 32L13 32L13 31L11 31L11 32L12 32L12 33L13 33L13 34L12 34L12 35L11 35L11 36L10 36L10 37L11 37L11 36L12 36L12 35L13 35L13 34L14 34L14 35L15 35L15 33L18 33L18 31L19 31L19 32L20 32L20 33L21 33L21 35L22 35L22 36L23 36L23 38L24 38L24 35L25 35L25 33L26 33L26 32L24 32L24 31L25 31L25 30L24 30L24 29L22 29L22 30L24 30L24 31L22 31L22 32L23 32L23 33L24 33L24 34L23 34L23 35L22 35L22 33L21 33L21 31L19 31L19 30L17 30L17 29L16 29L16 28L17 28L17 27ZM47 27L47 28L48 28L48 33L49 33L49 27ZM37 28L37 29L38 29L38 28ZM40 29L40 30L41 30L41 29ZM1 31L1 33L2 33L2 31ZM14 32L14 33L15 33L15 32ZM31 32L31 33L30 33L30 35L31 35L31 34L32 34L32 32ZM33 35L33 36L32 36L32 37L30 37L30 38L31 38L31 39L33 39L33 38L32 38L32 37L33 37L33 36L34 36L34 35ZM47 36L47 38L46 38L46 37L45 37L45 39L44 39L44 37L42 37L42 38L41 38L41 39L42 39L42 40L43 40L43 39L44 39L44 40L45 40L45 39L46 39L46 40L47 40L47 38L48 38L48 36ZM19 40L19 41L20 41L20 40ZM23 41L23 44L26 44L26 41ZM41 41L41 44L44 44L44 41ZM15 42L15 43L16 43L16 44L17 44L17 42ZM24 42L24 43L25 43L25 42ZM42 42L42 43L43 43L43 42ZM9 43L9 44L10 44L10 43ZM27 43L27 45L24 45L24 48L25 48L25 47L26 47L26 48L27 48L27 47L28 47L28 46L27 46L27 45L28 45L28 43ZM20 44L20 45L21 45L21 44ZM34 44L34 45L35 45L35 44ZM42 45L42 46L43 46L43 47L44 47L44 45ZM21 46L21 47L22 47L22 46ZM26 46L26 47L27 47L27 46ZM35 47L35 48L36 48L36 47ZM0 0L0 7L7 7L7 0ZM1 1L1 6L6 6L6 1ZM2 2L2 5L5 5L5 2ZM42 0L42 7L49 7L49 0ZM43 1L43 6L48 6L48 1ZM44 2L44 5L47 5L47 2ZM0 42L0 49L7 49L7 42ZM1 43L1 48L6 48L6 43ZM2 44L2 47L5 47L5 44Z" fill="#000000"/></g></g></svg>
