<?xml version="1.0" encoding="UTF-8"?>
<svg xmlns="http://www.w3.org/2000/svg" version="1.1" width="500" height="500" viewBox="0 0 500 500"><rect x="0" y="0" width="500" height="500" fill="#ffffff"/><g transform="scale(13.514)"><g transform="translate(0,0)"><path fill-rule="evenodd" d="M8 0L8 4L10 4L10 3L11 3L11 4L12 4L12 2L11 2L11 0ZM12 0L12 1L13 1L13 2L14 2L14 1L16 1L16 0L14 0L14 1L13 1L13 0ZM18 0L18 1L17 1L17 2L16 2L16 3L15 3L15 4L14 4L14 3L13 3L13 5L11 5L11 6L10 6L10 7L9 7L9 5L8 5L8 7L9 7L9 8L10 8L10 7L11 7L11 6L12 6L12 8L11 8L11 9L8 9L8 10L6 10L6 9L7 9L7 8L4 8L4 9L5 9L5 10L4 10L4 12L2 12L2 11L3 11L3 10L2 10L2 8L0 8L0 9L1 9L1 10L0 10L0 15L1 15L1 16L0 16L0 17L1 17L1 16L3 16L3 17L2 17L2 18L1 18L1 19L0 19L0 20L1 20L1 19L2 19L2 18L3 18L3 17L7 17L7 16L5 16L5 15L7 15L7 14L4 14L4 13L5 13L5 12L6 12L6 13L8 13L8 14L9 14L9 15L8 15L8 17L9 17L9 15L10 15L10 14L11 14L11 12L12 12L12 13L13 13L13 14L14 14L14 15L15 15L15 16L16 16L16 15L17 15L17 17L12 17L12 16L13 16L13 15L12 15L12 16L10 16L10 19L9 19L9 18L6 18L6 19L5 19L5 18L4 18L4 19L5 19L5 20L3 20L3 22L4 22L4 21L5 21L5 22L6 22L6 23L7 23L7 24L6 24L6 25L5 25L5 27L4 27L4 26L3 26L3 25L0 25L0 26L2 26L2 27L4 27L4 28L3 28L3 29L4 29L4 28L5 28L5 29L7 29L7 28L6 28L6 27L7 27L7 26L6 26L6 25L9 25L9 26L11 26L11 28L9 28L9 27L8 27L8 30L9 30L9 31L8 31L8 33L9 33L9 35L8 35L8 37L9 37L9 35L10 35L10 34L11 34L11 36L10 36L10 37L12 37L12 36L13 36L13 33L14 33L14 32L13 32L13 31L14 31L14 30L15 30L15 31L16 31L16 32L15 32L15 34L14 34L14 36L15 36L15 35L16 35L16 36L17 36L17 37L20 37L20 36L18 36L18 35L19 35L19 33L20 33L20 34L21 34L21 33L22 33L22 35L21 35L21 37L22 37L22 36L23 36L23 35L24 35L24 36L25 36L25 35L24 35L24 34L25 34L25 33L24 33L24 31L27 31L27 32L26 32L26 33L27 33L27 32L28 32L28 34L27 34L27 35L26 35L26 37L27 37L27 36L28 36L28 35L29 35L29 34L30 34L30 35L31 35L31 36L30 36L30 37L33 37L33 36L32 36L32 33L33 33L33 35L34 35L34 37L37 37L37 36L36 36L36 35L34 35L34 34L35 34L35 33L33 33L33 31L34 31L34 32L36 32L36 33L37 33L37 32L36 32L36 31L35 31L35 30L36 30L36 29L35 29L35 27L36 27L36 28L37 28L37 27L36 27L36 26L35 26L35 27L34 27L34 26L33 26L33 25L35 25L35 24L36 24L36 25L37 25L37 23L35 23L35 22L34 22L34 21L35 21L35 18L36 18L36 17L37 17L37 16L35 16L35 15L34 15L34 17L31 17L31 16L30 16L30 15L31 15L31 14L32 14L32 16L33 16L33 14L36 14L36 13L37 13L37 11L36 11L36 13L35 13L35 10L36 10L36 9L37 9L37 8L33 8L33 9L32 9L32 8L31 8L31 9L30 9L30 10L29 10L29 9L26 9L26 10L27 10L27 11L26 11L26 12L28 12L28 13L26 13L26 15L28 15L28 14L29 14L29 13L31 13L31 14L30 14L30 15L29 15L29 17L28 17L28 16L27 16L27 17L26 17L26 19L27 19L27 20L26 20L26 21L23 21L23 22L22 22L22 23L21 23L21 21L22 21L22 20L24 20L24 18L25 18L25 17L23 17L23 16L24 16L24 14L25 14L25 11L24 11L24 10L25 10L25 8L24 8L24 9L23 9L23 10L21 10L21 9L22 9L22 7L23 7L23 6L22 6L22 7L21 7L21 5L23 5L23 4L24 4L24 3L23 3L23 4L21 4L21 3L22 3L22 2L23 2L23 1L24 1L24 2L27 2L27 3L26 3L26 4L25 4L25 5L24 5L24 7L25 7L25 5L26 5L26 7L27 7L27 8L29 8L29 3L28 3L28 2L27 2L27 1L28 1L28 0L25 0L25 1L24 1L24 0L22 0L22 2L21 2L21 0L20 0L20 1L19 1L19 0ZM9 2L9 3L10 3L10 2ZM18 2L18 3L17 3L17 4L16 4L16 5L15 5L15 7L14 7L14 5L13 5L13 8L12 8L12 9L11 9L11 10L12 10L12 9L16 9L16 5L17 5L17 7L18 7L18 8L19 8L19 7L20 7L20 9L19 9L19 10L18 10L18 9L17 9L17 10L16 10L16 11L18 11L18 13L17 13L17 12L14 12L14 11L15 11L15 10L13 10L13 11L12 11L12 12L13 12L13 13L17 13L17 14L18 14L18 13L19 13L19 15L18 15L18 17L17 17L17 18L16 18L16 19L17 19L17 18L18 18L18 17L19 17L19 20L18 20L18 21L17 21L17 20L14 20L14 19L15 19L15 18L13 18L13 19L12 19L12 20L11 20L11 19L10 19L10 20L9 20L9 19L6 19L6 20L7 20L7 21L6 21L6 22L7 22L7 21L8 21L8 24L10 24L10 23L11 23L11 24L12 24L12 25L11 25L11 26L12 26L12 25L16 25L16 27L14 27L14 26L13 26L13 27L12 27L12 28L11 28L11 29L10 29L10 31L9 31L9 33L11 33L11 34L12 34L12 33L11 33L11 32L12 32L12 31L13 31L13 29L14 29L14 28L16 28L16 27L17 27L17 26L18 26L18 27L19 27L19 28L18 28L18 29L19 29L19 30L18 30L18 31L20 31L20 33L21 33L21 31L22 31L22 30L23 30L23 29L26 29L26 30L27 30L27 31L28 31L28 29L26 29L26 28L27 28L27 25L28 25L28 26L29 26L29 27L28 27L28 28L29 28L29 27L30 27L30 26L32 26L32 27L33 27L33 26L32 26L32 25L33 25L33 24L34 24L34 22L32 22L32 25L29 25L29 24L31 24L31 21L29 21L29 24L28 24L28 23L27 23L27 22L28 22L28 20L32 20L32 21L34 21L34 18L33 18L33 19L32 19L32 18L31 18L31 17L29 17L29 18L31 18L31 19L28 19L28 20L27 20L27 22L26 22L26 23L25 23L25 22L24 22L24 24L22 24L22 25L25 25L25 26L24 26L24 28L22 28L22 29L21 29L21 27L22 27L22 26L21 26L21 27L20 27L20 21L21 21L21 19L20 19L20 17L21 17L21 18L22 18L22 19L23 19L23 18L22 18L22 17L21 17L21 15L20 15L20 9L21 9L21 7L20 7L20 6L19 6L19 5L20 5L20 2ZM27 3L27 4L28 4L28 3ZM17 4L17 5L19 5L19 4ZM27 5L27 7L28 7L28 5ZM18 6L18 7L19 7L19 6ZM31 9L31 10L30 10L30 11L28 11L28 12L30 12L30 11L31 11L31 12L32 12L32 13L34 13L34 11L32 11L32 9ZM34 9L34 10L35 10L35 9ZM1 10L1 11L2 11L2 10ZM6 11L6 12L7 12L7 11ZM8 11L8 12L9 12L9 11ZM10 11L10 12L11 12L11 11ZM1 12L1 13L2 13L2 12ZM21 12L21 14L23 14L23 13L22 13L22 12ZM1 14L1 15L3 15L3 16L4 16L4 15L3 15L3 14ZM22 15L22 16L23 16L23 15ZM19 16L19 17L20 17L20 16ZM11 17L11 18L12 18L12 17ZM36 19L36 22L37 22L37 19ZM8 20L8 21L9 21L9 20ZM12 20L12 21L13 21L13 23L12 23L12 24L13 24L13 23L14 23L14 24L15 24L15 23L16 23L16 24L17 24L17 25L18 25L18 26L19 26L19 25L18 25L18 23L19 23L19 22L17 22L17 21L15 21L15 23L14 23L14 21L13 21L13 20ZM19 20L19 21L20 21L20 20ZM0 21L0 24L1 24L1 23L2 23L2 24L3 24L3 23L2 23L2 22L1 22L1 21ZM10 21L10 22L11 22L11 21ZM26 24L26 25L27 25L27 24ZM25 26L25 27L26 27L26 26ZM0 28L0 29L2 29L2 28ZM12 28L12 29L13 29L13 28ZM19 28L19 29L20 29L20 30L21 30L21 29L20 29L20 28ZM33 28L33 30L35 30L35 29L34 29L34 28ZM15 29L15 30L16 30L16 29ZM29 29L29 32L32 32L32 29ZM30 30L30 31L31 31L31 30ZM18 32L18 33L19 33L19 32ZM22 32L22 33L23 33L23 32ZM16 33L16 34L17 34L17 33ZM0 0L0 7L7 7L7 0ZM1 1L1 6L6 6L6 1ZM2 2L2 5L5 5L5 2ZM30 0L30 7L37 7L37 0ZM31 1L31 6L36 6L36 1ZM32 2L32 5L35 5L35 2ZM0 30L0 37L7 37L7 30ZM1 31L1 36L6 36L6 31ZM2 32L2 35L5 35L5 32Z" fill="#000000"/></g></g></svg>
